HIERARCHY
ROOT pelvis
{
  OFFSET 0 100 0
  CHANNELS 6 Xposition Yposition Zposition Zrotation Xrotation Yrotation
  JOINT pelvis_right_femur
  {
    OFFSET -10.78128 -3.44521 -0.5502486
    CHANNELS 3 Zrotation Xrotation Yrotation
    JOINT right_femur_tibia
    {
      OFFSET -0.8047443 -44.0398 -0.1307829
      CHANNELS 3 Zrotation Xrotation Yrotation
      JOINT right_tibia_foot
      {
        OFFSET 3.006224 -47.83518 -5
        CHANNELS 3 Zrotation Xrotation Yrotation
        End Site
        {
          OFFSET 0 -5 15
        }
      }
    }
  }
  JOINT pelvis_left_femur
  {
    OFFSET 10.78128 -3.44521 -0.5502486
    CHANNELS 3 Zrotation Xrotation Yrotation
    JOINT left_femur_tibia
    {
      OFFSET 0.8047443 -44.0398 -0.1307829
      CHANNELS 3 Zrotation Xrotation Yrotation
      JOINT left_tibia_foot
      {
        OFFSET -4.370144 -48.10324 -4.275266
        CHANNELS 3 Zrotation Xrotation Yrotation
        End Site
        {
          OFFSET 0 -5 15
        }
      }
    }
  }
  JOINT pelvis_spine1
  {
    OFFSET 0 6.468898 -3.129235
    CHANNELS 3 Zrotation Xrotation Yrotation
    JOINT spine1
    {
      OFFSET 0 23.15396 4.99043
      CHANNELS 3 Zrotation Xrotation Yrotation
      JOINT spine2
      {
        OFFSET 0 20.79997 -5.064912
        CHANNELS 3 Zrotation Xrotation Yrotation
        JOINT neck
        {
          OFFSET 0 14.38658 9.616178
          CHANNELS 3 Zrotation Xrotation Yrotation
          End Site
          {
            OFFSET 0 20 0
          }
        }
      }
      JOINT right_manubrium
      {
        OFFSET -5.722621 16.35077 3.967754
        CHANNELS 3 Zrotation Xrotation Yrotation
        JOINT right_clavicle
        {
          OFFSET -13.16364 1.694482 -4.693211
          CHANNELS 3 Zrotation Xrotation Yrotation
          JOINT right_humerus
          {
            OFFSET -28.5034 -0.3100689 -2.792744
            CHANNELS 3 Zrotation Xrotation Yrotation
            JOINT right_radius
            {
              OFFSET -25.15693 0.02248979 -1.271978
              CHANNELS 3 Zrotation Xrotation Yrotation
              End Site
              {
                OFFSET -15 0 0
              }
            }
          }
        }
      }
      JOINT left_manubrium
      {
        OFFSET 5.722621 16.35077 3.967754
        CHANNELS 3 Zrotation Xrotation Yrotation
        JOINT left_clavicle
        {
          OFFSET 13.16364 1.694482 -4.693211
          CHANNELS 3 Zrotation Xrotation Yrotation
          JOINT left_humerus
          {
            OFFSET 29.39168 -1.063119 -2.237045
            CHANNELS 3 Zrotation Xrotation Yrotation
            JOINT left_radius
            {
              OFFSET 24.59957 -0.9528479 0.9047498
              CHANNELS 3 Zrotation Xrotation Yrotation
              End Site
              {
                OFFSET 15 -0 -0
              }
            }
          }
        }
      }
    }
  }
}
MOTION
Frames: 13
Frame Time: 0.0416666666667
-1559.891 100.2068 2257.381 -12.29808 2.596156 -104.0506 4.079472 9.399753 -8.093272 -0 21.0262 -0 -18.74452 9.088209 4.691079 -0.2696324 -10.04591 -2.205534 -0 19.5557 -0 7.093774 -5.477456 18.26064 0.1429561 -2.998528 5.23994 -1.667326 17.61591 -4.411745 1.186422 22.76325 3.485714 2.941822 -17.93476 3.953104 -6.061452 -27.01818 11.80495 95.27043 13.04184 -11.44693 -0 0 16.46622 -28.93831 7.601735 12.99723 5.823304 -26.56807 -9.805163 -89.61396 0.5035194 23.62929 0 0 -8.175578 23.23355 13.1513 -17.3817
-1566.691 100.251 2256.501 -12.4145 2.657765 -104.2184 4.016098 8.833395 -8.240502 -0 21.44783 -0 -18.9301 9.700684 4.746533 -0.4138684 -9.299644 -2.206301 -0 19.94355 -0 7.160403 -5.569335 18.1396 0.1463929 -3.02193 5.120118 -1.671692 17.70361 -4.469231 1.192025 22.79706 3.488946 2.957602 -17.88546 3.948918 -6.131939 -26.88938 11.80086 95.57082 12.84102 -11.70436 -0 0 16.08627 -29.01007 7.570468 12.91723 5.84043 -26.74276 -9.927577 -89.44882 0.2719018 23.26437 0 0 -8.373741 23.5256 13.08003 -17.76976
-1573.509 100.3505 2255.574 -12.51222 2.723665 -104.374 3.979669 8.198874 -8.399252 -0 21.65183 -0 -19.14482 10.27035 4.807118 -0.5411145 -8.530506 -2.18843 -0 20.43366 -0 7.225832 -5.649612 17.99967 0.1644514 -3.047126 5.000849 -1.662677 17.79665 -4.541772 1.193703 22.82392 3.488822 2.973193 -17.85207 3.937759 -6.210681 -26.76344 11.80212 95.8845 12.63819 -11.99786 -0 0 15.6848 -29.05552 7.544724 12.81873 5.863162 -26.94933 -10.05299 -89.28033 0.01903779 22.88521 0 0 -8.632686 23.84922 13.00581 -18.19773
-1580.345 100.4969 2254.595 -12.58457 2.793522 -104.5256 3.972737 7.539685 -8.558751 -0 21.62379 -0 -19.37413 10.76001 4.868504 -0.642827 -7.790458 -2.152241 -0 20.99965 -0 7.284618 -5.711595 17.84933 0.1962545 -3.072248 4.8902 -1.641 17.88904 -4.62442 1.191454 22.84217 3.485135 2.987487 -17.83626 3.920199 -6.292706 -26.64832 11.80868 96.19103 12.44586 -12.30791 -0 0 15.2878 -29.07248 7.526514 12.70842 5.889678 -27.17412 -10.1733 -89.11962 -0.2388333 22.51654 0 0 -8.935218 24.18263 12.93271 -18.63695
-1587.195 100.6796 2253.565 -12.62775 2.866708 -104.6815 3.995554 6.903706 -8.707879 -0 21.37196 -0 -19.60122 11.14026 4.925426 -0.7124455 -7.130135 -2.099093 -0 21.61199 -0 7.330873 -5.749232 17.69765 0.2397609 -3.095159 4.795632 -1.608808 17.97479 -4.710961 1.185769 22.85108 3.477892 2.99941 -17.83749 3.897366 -6.372698 -26.55065 11.82 96.47065 12.27558 -12.6132 -0 0 14.92079 -29.06213 7.517456 12.59445 5.917598 -27.40123 -10.28087 -88.97661 -0.4845614 22.1819 0 0 -9.259482 24.50222 12.86484 -19.05658
-1594.055 100.8865 2252.483 -12.64063 2.942251 -104.8493 4.046113 6.338755 -8.836082 -0 20.92502 -0 -19.80855 11.39075 4.972365 -0.7458112 -6.594889 -2.031592 -0 22.23788 -0 7.359208 -5.758073 17.55391 0.2918796 -3.113722 4.723445 -1.569342 18.04834 -4.794543 1.177508 22.85079 3.467378 3.008033 -17.8535 3.870887 -6.445329 -26.47546 11.83507 96.70548 12.13742 -12.89234 -0 0 14.60724 -29.02836 7.518559 12.48556 5.944327 -27.61389 -10.36895 -88.85953 -0.7012612 21.90227 0 0 -9.580943 24.7846 12.80627 -19.42621
-1600.921 101.1051 2251.35 -12.62406 3.018838 -105.0354 4.120418 5.88769 -8.934281 -0 20.32677 -0 -19.97977 11.50019 5.004416 -0.7413209 -6.221208 -1.953683 -0 22.84126 -0 7.365763 -5.736129 17.42715 0.3487379 -3.126123 4.678332 -1.526402 18.10483 -4.868458 1.167703 22.84209 3.454197 3.012676 -17.88107 3.842746 -6.505621 -26.42626 11.85257 96.88054 12.0397 -13.12564 -0 0 14.36722 -28.97658 7.530045 12.39022 5.967436 -27.79613 -10.43202 -88.77467 -0.8736216 21.69496 0 0 -9.874938 25.00878 12.76093 -19.71866
-1607.789 101.323 2250.168 -12.58008 3.094894 -105.245 4.212931 5.583892 -8.99569 -0 19.62915 -0 -20.10163 11.46571 5.01815 -0.6998661 -6.033861 -1.870554 -0 23.38375 -0 7.349056 -5.684419 17.32577 0.4060643 -3.131162 4.663072 -1.483752 18.1405 -4.926944 1.157352 22.82613 3.439253 3.012987 -17.91683 3.815079 -6.549356 -26.40525 11.87103 96.98469 11.98857 -13.29686 -0 0 14.21618 -28.91245 7.551229 12.31566 5.985031 -27.93439 -10.46613 -88.72632 -0.9892381 21.57275 0 0 -10.11933 25.15838 12.73227 -19.91269
-1614.653 101.5282 2248.941 -12.51134 3.168728 -105.4812 4.317075 5.447933 -9.016399 -0 18.88545 -0 -20.16547 11.29197 5.012231 -0.6246358 -6.044049 -1.788279 -0 23.82686 -0 7.310407 -5.607044 17.25686 0.4596172 -3.128459 4.678374 -1.444615 18.15296 -4.965822 1.147255 22.80422 3.423681 3.008985 -17.95793 3.789951 -6.573455 -26.41339 11.88903 97.01133 11.98765 -13.3946 -0 0 14.16395 -28.84093 7.580526 12.2671 5.995978 -28.01891 -10.46908 -88.71681 -1.039803 21.54317 0 0 -10.29674 25.2232 12.72286 -19.9951
-1621.508 101.7094 2247.674 -12.42081 3.238724 -105.7456 4.42576 5.485977 -8.995655 -0 18.14517 -0 -20.16801 10.99059 4.987636 -0.5208414 -6.248746 -1.713225 -0 24.13551 -0 7.253799 -5.510729 17.2256 0.5055915 -3.11849 4.722863 -1.411375 18.14139 -4.982863 1.137935 22.77769 3.408723 3.001048 -18.00228 3.769146 -6.576277 -26.45046 11.90533 96.95894 12.03759 -13.41312 -0 0 14.21398 -28.76585 7.615576 12.24735 5.999975 -28.04461 -10.44067 -88.7465 -1.021954 21.60805 0 0 -10.39608 25.20017 12.73401 -19.96185
-1628.35 101.8563 2246.372 -12.3119 3.30354 -106.038 4.53187 5.690052 -8.935804 -0 17.45108 -0 -20.11139 10.57969 4.947418 -0.3953832 -6.631264 -1.651337 -0 24.28225 -0 7.185204 -5.40392 17.23468 0.5409406 -3.10248 4.793226 -1.385499 18.10668 -4.97784 1.12966 22.74786 3.39558 2.989864 -18.04848 3.754011 -6.557777 -26.51486 11.91896 96.83124 12.13572 -13.35259 -0 0 14.36291 -28.69001 7.653518 12.25669 5.997438 -28.01134 -10.38277 -88.81376 -0.9376237 21.76322 0 0 -10.41309 25.09324 12.76538 -19.81807
-1635.171 101.9597 2245.041 -12.18879 3.36229 -106.3565 4.628712 6.03995 -8.841912 -0 16.83849 -0 -20.00237 10.08355 4.896101 -0.2564446 -7.16297 -1.607435 -0 24.25142 -0 7.111549 -5.295652 17.28385 0.5635822 -3.082153 4.884486 -1.367667 18.05134 -4.952296 1.122529 22.71609 3.385275 2.97634 -18.09538 3.745377 -6.519494 -26.60343 11.92926 96.63699 12.27596 -13.21881 -0 0 14.60069 -28.61567 7.691326 12.29315 5.989279 -27.92346 -10.29921 -88.91491 -0.7937883 21.99862 0 0 -10.35003 24.91255 12.81495 -19.57704
-1641.967 102.0129 2243.686 -12.05669 3.414662 -106.6977 4.7104 6.506219 -8.721167 -0 16.33571 -0 -19.85113 9.531841 4.838859 -0.1130009 -7.805893 -1.584675 -0 24.04194 -0 7.039607 -5.194414 17.36981 0.572477 -3.059444 4.990389 -1.358003 17.97929 -4.90913 1.116592 22.6839 3.37854 2.961502 -18.14168 3.743546 -6.464375 -26.7113 11.93585 96.3894 12.44912 -13.02236 -0 0 14.91112 -28.54516 7.726163 12.35298 5.976657 -27.78905 -10.19563 -89.04422 -0.601685 22.29878 0 0 -10.21469 24.67299 12.87912 -19.25831
